PathFileType	3	(X/Y/Z)	results
DataRate	CameraRate	NumFrames	NumMarkers	Units	OrigDataRate	OrigDataStartFrame	OrigNumFrames
30.0	30.0	4	85	mm	30.0	139	369
Frame#	Time	head			nose			neck			shoulder_r			elbow_r			wrist_r			shoulder_l			elbow_l			wrist_l			hip_r			knee_r			ankle_r			hip_l			knee_l			ankle_l			heel_r			heel_l			mtoe_r			ltoe_r			mtoe_l			ltoe_l			asis_l			asis_r			psi_r			psi_l			mhnd_r			lhnd_r			mhnd_l			lhnd_l			l_lat_knee			r_med_wrist			l_lat_ankle			r_med_ankle			r_lat_knee			xiphoid			l_med_ankle			r_med_knee			l_med_elbow			navel			r_lat_elbow			r_lat_wrist			l_med_wrist			l_lat_elbow			l_med_knee			r_med_elbow			r_lat_ankle			l_lat_wrist			chin			T10			r_eye			l_eye			l_ear			r_ear			spinal_cord_8			spinal_cord_12			spinal_cord_27			spinal_cord_33			up_arm_r_0			up_arm_r_5			up_arm_l_0			up_arm_l_5			front_torso_11			front_torso_7			front_torso_4			front_torso_1			front_torso_10			thigh_r_2			thigh_r_3			thigh_l_1			thigh_l_5			shank_l_0			shank_l_4			shank_r_1			shank_r_2			foot_r_1			foot_r_3			foot_r_5			foot_r_6			foot_r_7			foot_l_1			foot_l_7			foot_l_0			foot_l_4			foot_l_5			foot_l_6			
		X1	Y1	Z1	X2	Y2	Z2	X3	Y3	Z3	X4	Y4	Z4	X5	Y5	Z5	X6	Y6	Z6	X7	Y7	Z7	X8	Y8	Z8	X9	Y9	Z9	X10	Y10	Z10	X11	Y11	Z11	X12	Y12	Z12	X13	Y13	Z13	X14	Y14	Z14	X15	Y15	Z15	X16	Y16	Z16	X17	Y17	Z17	X18	Y18	Z18	X19	Y19	Z19	X20	Y20	Z20	X21	Y21	Z21	X22	Y22	Z22	X23	Y23	Z23	X24	Y24	Z24	X25	Y25	Z25	X26	Y26	Z26	X27	Y27	Z27	X28	Y28	Z28	X29	Y29	Z29	X30	Y30	Z30	X31	Y31	Z31	X32	Y32	Z32	X33	Y33	Z33	X34	Y34	Z34	X35	Y35	Z35	X36	Y36	Z36	X37	Y37	Z37	X38	Y38	Z38	X39	Y39	Z39	X40	Y40	Z40	X41	Y41	Z41	X42	Y42	Z42	X43	Y43	Z43	X44	Y44	Z44	X45	Y45	Z45	X46	Y46	Z46	X47	Y47	Z47	X48	Y48	Z48	X49	Y49	Z49	X50	Y50	Z50	X51	Y51	Z51	X52	Y52	Z52	X53	Y53	Z53	X54	Y54	Z54	X55	Y55	Z55	X56	Y56	Z56	X57	Y57	Z57	X58	Y58	Z58	X59	Y59	Z59	X60	Y60	Z60	X61	Y61	Z61	X62	Y62	Z62	X63	Y63	Z63	X64	Y64	Z64	X65	Y65	Z65	X66	Y66	Z66	X67	Y67	Z67	X68	Y68	Z68	X69	Y69	Z69	X70	Y70	Z70	X71	Y71	Z71	X72	Y72	Z72	X73	Y73	Z73	X74	Y74	Z74	X75	Y75	Z75	X76	Y76	Z76	X77	Y77	Z77	X78	Y78	Z78	X79	Y79	Z79	X80	Y80	Z80	X81	Y81	Z81	X82	Y82	Z82	X83	Y83	Z83	X84	Y84	Z84	X85	Y85	Z85	
139	4.633333333333333	82.70309302375489	1696.521227142323	-200.1554323329475	44.667423012861576	1529.3890613541942	-329.54545801218273	66.2386483625001	1369.457260815171	-200.65413145533174	241.68963844833183	1341.7374521467434	-226.70633134255087	278.59947502798946	1086.7152250368656	-277.2612070416804	162.42390662037593	928.4981483050054	-398.2696823272864	-95.1953639778963	1336.3662951500212	-196.06690542219067	-153.10154350119348	1103.5636953559608	-250.70047048291087	-53.00870969910156	936.9294377554872	-348.4544372235238	150.3937340450421	881.3591281411068	-240.66287834029333	155.88493340407058	487.59951858853736	-167.21247331598383	212.32992226673036	113.15402138625369	-158.9956968904512	-38.19084732618432	874.5196018618428	-230.74362870328673	-49.62724240557227	483.5144469574052	-170.0547204794367	-97.66253767415361	106.72253731391224	-153.39482342622583	213.77023755904452	58.780222126566564	-141.96036393353165	-105.13962257609748	44.94962931672039	-128.70860548113865	243.44698047297894	37.894935232296056	-358.41032516548336	298.5855833439173	49.36212209286451	-292.1723521716627	-126.41230787562132	46.13303318955633	-353.14984469991447	-197.39874844532633	33.961606872381864	-287.40501940995085	-83.91189066439946	939.1191125401281	-255.60353899061482	192.46821943034826	945.7743476306734	-267.6413126481817	106.33904150596801	940.2313594453975	-136.2359617285726	11.974620668761947	937.3652438745903	-136.5980409656598	149.627718167795	861.535326830728	-425.3607486730928	108.91982442355072	884.9466900477732	-451.12540884887096	-45.825599404116325	866.7932283160116	-377.50494242915255	3.903634634997523	882.7766645861262	-388.78680267423914	-99.56925867502473	480.31389058690684	-156.74788857166138	188.82252618697305	917.8391105773703	-392.6875940943538	-148.79792451371995	99.07895725220584	-138.20295480752205	180.38126935600667	98.72071538632277	-171.9370116941757	199.95673754630113	478.8447269275318	-159.4475540897246	61.891773734353016	1204.595555997941	-299.0290174025927	-73.23368803241185	91.47206913693279	-172.14694938455972	115.8634538913783	477.6246729242408	-182.7026140193394	-156.29909930713728	1105.0959343532602	-217.05477611472878	54.98264092375442	988.6470801376562	-319.4110887357092	289.3693116693135	1102.057804975448	-312.76527482017997	139.8761870342077	949.8557089879392	-390.58984055441226	-82.79540990934667	933.666934859565	-352.7480225491158	-156.7334880612959	1122.8132798958404	-282.61101154649305	-15.66654068602975	475.02739635090256	-207.03434882413362	267.72958041082313	1084.3735861364128	-241.96137760533293	260.4497565577104	102.36524331567898	-161.6358440061707	-32.46659806432492	957.5375159562138	-346.94531073467215	45.43926078202753	1451.8546144697689	-314.7408008699768	67.38483394293111	1210.4281513861854	-105.59819592866972	78.84291820401084	1559.8529518863281	-334.7078895621917	10.900335104885029	1562.1359434663257	-319.2443945257928	-18.33938684507845	1552.1468962662132	-207.65787941135312	150.5919509614475	1543.180822946026	-243.65941523178705	68.52544639412953	1426.615177317971	-150.80662113802924	67.04947779233574	1309.3784374265538	-102.9313770283901	75.09604772576357	1060.9076761373683	-125.63790327079391	66.75471024486434	1201.2630608670727	-118.70869586162937	222.50554498103912	1215.804657878547	-279.124190095207	303.066114223101	1193.6794086292198	-249.3206183448535	-113.72489866361022	1297.0839930887603	-232.50522239963533	-153.6030111761064	1164.3219000304869	-200.29414082329146	100.50766621081983	1014.3720766438247	-280.8842574083543	60.441835389911496	1119.499571862451	-331.6003868103543	3.7376916757667358	1250.4107234480618	-301.9092457102476	-6.105423067602714	1049.4118195600952	-281.1920514729174	135.80682701084663	1289.2313270236195	-312.31234207010726	136.31476043762743	665.3770815697192	-207.9626800605226	232.59063456229117	634.811334036351	-177.05711009908322	-2.617105799605869	590.5805103551405	-205.90192151613965	-143.95697968012877	773.0982734767979	-198.17376549038073	-152.06716422626403	206.43637809101133	-152.7614262104329	-23.28306755763623	331.5427295246199	-178.1105185665078	236.47411898783616	335.6223001695374	-161.87857412023038	146.68938057537545	286.2335320451972	-168.14792390002927	264.29862751492396	36.34173538226728	-337.52904486021623	284.5938505200452	43.511304494513396	-318.566027910163	218.63929152370383	50.58999970457796	-281.3121963277159	250.6002311330305	64.62903921204253	-264.4284731936146	280.7732520661254	58.24553770135881	-247.8885141417946	-171.7144383278424	34.36658136496658	-321.0668721536615	-174.61197485827407	63.71298062753613	-214.65099010512634	-185.30674677042222	34.56736615214452	-311.26816461021326	-154.92907764697244	34.08238797053111	-332.46765818877526	-153.3788833947896	49.29951722306024	-273.79526080777975	-118.91835320776194	60.29889830872387	-248.55108685478416	
140	4.666666666666667	83.7737994896931	1696.0245582167656	-200.6563732257006	43.31417404273357	1528.6550557194507	-329.0001308533089	65.16831628000227	1368.322553483754	-200.15916461834192	243.69422544102366	1336.5187295336268	-225.68388869314762	269.9205913144378	1079.746072467291	-274.0000157061982	162.05592891516517	913.7686498138327	-392.2758244337684	-94.30376144506752	1335.8991163323783	-198.9372786015468	-140.1071446278814	1099.0407989900114	-247.261083541271	-50.81075034983186	924.4921515931657	-341.60255299659485	149.94889682255584	880.7548304712586	-242.3418044361423	155.70575418504797	487.2203159116586	-167.71479975770353	212.80409130236194	112.89955093434185	-158.40204705872026	-38.610874574296105	873.7445550617407	-232.07615231382786	-47.99470635691078	482.870693235974	-170.31105545397793	-97.06103153087331	106.20786241475922	-153.73720418682854	214.362266266613	58.41716584825522	-141.3133270547642	-104.54566609513984	44.57889846682965	-128.9550072713764	243.72784771885878	38.5024333088392	-357.8971585145577	298.9609292543482	49.6815139833979	-291.6886558374086	-127.23614465751001	44.852862523920564	-353.26030050571944	-197.83671891169567	33.15423811220024	-287.0160440179964	-84.41234052404647	938.5467870418403	-256.2509774539203	191.9382209674485	945.4297738655332	-268.82702852118535	106.09685574717176	938.6602457584117	-137.29087469044853	11.733057329868998	935.7568815319951	-137.47435277605507	152.2175020255052	845.5773483442255	-417.47184663332956	111.28621868365687	866.6998228488796	-444.8125373622778	-47.74520003784794	853.0973580211413	-368.21087223781905	2.291391822643596	866.3166705562328	-381.527650181211	-97.85587783366226	479.46878201776514	-156.72719002179582	188.68420530553377	904.2414721669352	-385.8082366373863	-148.14127225776832	98.70207471795666	-138.29320425634577	180.882904153127	98.37288409825761	-171.30662513642446	199.81012952856108	478.4820819424327	-160.11798393614706	60.50930940650181	1203.7415182248208	-298.98867290136087	-72.77271324025786	90.90186990533633	-172.62613984525987	115.61473058676732	477.2047649049859	-182.99744979936776	-143.46905911469054	1101.3234582171835	-213.67400467409234	53.812167069108966	987.8429385219962	-319.96153015111605	281.20345941057036	1094.3104308903355	-309.6721241457515	138.60873326682488	934.534232545178	-385.7532009911526	-80.83388653626736	922.476976951178	-344.9005333182604	-144.6310091428199	1117.2034696188744	-279.69057941607764	-14.213747360818571	474.41661537577124	-207.46978370951464	259.072225672136	1078.1733665262686	-238.6509648154368	260.9431622899395	102.18734607561602	-161.00302240612245	-29.31024929640315	944.1557714230004	-341.46395306339383	43.71498007791208	1451.1748515239717	-313.8997542797604	67.1004239082762	1209.019272762035	-105.57621701455899	77.63952130357416	1558.867429693334	-334.6256789783877	9.873227273056049	1561.6686097579511	-318.4884824718181	-18.305796871039004	1552.3076778161217	-206.57508599700247	150.189822161781	1542.0627264660452	-244.23893184281175	67.65340326879931	1425.338524519755	-150.1588192346137	66.62980509221501	1307.9607408989652	-102.6185329367503	74.92427565464735	1059.569822088979	-126.09631068801036	66.40922123998838	1199.8914397131427	-118.70961152220372	219.18189892062423	1211.0140888723597	-276.893858929564	298.8548999747976	1185.8600931035417	-247.1067096884505	-110.7065799942748	1294.7436895345838	-234.31201879540703	-143.84393176807993	1161.0443007732163	-198.5352057826944	99.51775205275479	1013.5256238484154	-281.62069968953574	59.00244208612645	1118.7386111624967	-331.79961747965336	2.2700655433281063	1249.475385439285	-301.402468153478	-7.148534615601269	1048.4021060346724	-281.2164658349593	134.21829022768944	1288.5291890917142	-312.44722287785186	135.98227745855291	664.8758782240092	-208.9206071698778	232.38920286005205	634.3889048110447	-178.34754219218695	-1.6617870849002028	590.0278533653565	-206.70673568574554	-143.75010401541164	771.9494762027726	-198.65369060270325	-151.1661260897845	206.08158887027116	-152.74114621205953	-22.141964320728917	330.828934480766	-178.63293351979917	236.55969089079642	335.4004200503041	-161.92667640969535	146.8625145111597	285.8366853528842	-168.06729263768418	264.60996220985885	36.85894425989542	-337.05326925525947	284.93171166523524	43.94662252315553	-318.0878764082789	219.03030891588477	50.84975508875945	-280.7072447616387	251.0138338636259	64.81774335407232	-263.80736802808036	281.21165851307484	58.364679535472945	-247.33982774435896	-172.36512898122908	33.3456858212053	-320.841028495138	-174.51106408748058	63.15758010542452	-214.53678238287122	-185.89452970424188	33.62495801896413	-310.9575495546677	-155.6531179481074	32.9675802230294	-332.3463639824772	-153.69114831173545	48.43296478281677	-273.75125416173387	-119.04247474027136	59.44883859336444	-248.7732080504781	
141	4.7	83.38598836639865	1695.190435438394	-200.5745751177713	42.92856835608649	1528.0342720295525	-329.1967581968466	64.43928348455474	1367.5482082838184	-199.6661492990637	243.36782490251085	1331.8584103682208	-222.73845532187758	261.765233676764	1074.3582681328724	-270.79758465795516	160.214765257277	904.5248685710044	-389.1892056131403	-92.147837869657	1334.8507229960298	-200.38813765000847	-131.6592900407812	1096.0894193549175	-244.73774373650227	-49.31676570065681	916.4525098891703	-335.79639868489215	149.54129970782444	880.1335148128468	-243.79200513144622	154.84839966325637	486.8576585586793	-167.78094698039678	214.11936646551385	112.90450682906383	-157.34182041677502	-38.97854059565661	872.827552547462	-233.01203799914532	-46.30961746273023	482.0671512148777	-170.3406592745147	-95.77365030805889	105.46185129357954	-153.6420826879048	216.13564034571885	58.46500159787417	-140.06843761345377	-103.21229806487088	43.67538151684057	-128.961384129141	243.25053837440402	38.04605470744401	-356.89864516934057	299.1625491247103	49.44728213725434	-291.3007028667367	-126.93808687272387	45.328331967611405	-353.1536055528359	-197.22126307411725	33.14871131916491	-286.65900126299647	-84.94290867358046	937.6005175490895	-256.9550034670631	191.36102639817508	944.9129121900702	-270.29028573643245	105.897063737196	937.8055889715013	-138.52639348515262	11.53751051090375	934.7627706018163	-138.4514863152187	152.32602358291842	835.772430856627	-413.5317165269453	111.7547494286135	855.6807225269596	-442.283653696667	-48.936632279220305	844.3836013850255	-360.7071338477347	1.3554326530692828	855.5966073859937	-374.8748444946973	-96.10570546246605	478.4525601453139	-156.5550295486523	186.83325748293237	895.6091053992521	-381.86616334648187	-146.73530758326962	98.01682564666736	-137.78250966715333	182.18639149386	98.1456273307803	-169.9503476567626	198.98501235966492	478.0340746768735	-160.47560269439387	59.55617605278316	1203.3598737799741	-299.1359502140973	-71.66388638821077	90.13570166412421	-172.74224299241138	114.62117206195133	476.88961059225267	-182.73317111839566	-135.30191040282742	1098.8834307501775	-211.21864938395075	52.941672445471156	987.5419377386418	-320.9482403114461	273.91381406369317	1088.5403271892446	-306.3391682576877	136.21868997076444	924.9395830737827	-383.62567893196695	-79.42637381488585	915.3682237274443	-338.7225108215156	-136.42141482009163	1113.5524506647125	-277.5155542533074	-12.647490329631854	473.6713135026312	-207.62563948582653	250.4771512578733	1073.1467815682074	-235.5722055177443	262.29752942453064	102.45114059655857	-160.25357410547704	-27.173411829555878	935.3813238843718	-336.36259686265623	43.24810766514317	1450.532737208706	-314.20429157667394	66.81373773363846	1207.8698608164111	-105.72792713626734	77.28528151880477	1558.2257964722307	-334.7421986576671	9.503571010464118	1561.0610262049056	-318.67585120707497	-18.806790847484613	1551.5672752955752	-206.80679889945094	149.72170946609253	1541.2342292312787	-244.29907392251803	67.05662727391325	1424.3658123598625	-149.44722330936997	66.2822107371746	1306.7983540707714	-102.3731997644321	74.67391445556427	1058.5093422181753	-126.87215360499427	66.0835896668243	1198.7940556226642	-118.89522725725688	215.35929688476475	1207.2067993884364	-274.23824434081155	293.8340163884012	1179.4805283523883	-243.56647958412438	-107.27424261522826	1292.6716242460443	-235.12010222390052	-137.27892655285996	1158.8355542921825	-197.15674741694778	98.7613723310323	1013.1047700827651	-282.6635591752512	57.99674577936187	1118.487621196982	-332.2809628253216	1.2760388639060163	1249.0603121583076	-301.1652567304778	-7.92792934775742	1047.9011565487367	-281.7505846321509	133.1570722133794	1288.2546371247918	-312.5106574327661	135.27336796406277	664.4131312897704	-209.48592457782013	231.82432286143697	633.7901514920956	-179.5091113365908	-0.6238468181548538	589.3403024904567	-207.16816622701543	-143.5127087683413	770.6259018641374	-198.938780505105	-149.7264411211831	205.41138930212293	-152.1252306245063	-20.742924979423893	329.9952217375953	-178.9885972500724	236.59584428463754	335.51819160870633	-161.96173111967096	147.1362845784397	285.4279700179792	-167.235372504937	264.35180417176565	36.476222348315744	-336.27090439541064	284.8635655363488	43.63228835043253	-317.53716010798576	219.35023000674	50.557979872386205	-279.4845989513458	251.49399666189458	64.60158049072075	-262.9554748135142	281.86979353397714	58.22124221453823	-246.7896844811726	-171.90625631237714	33.57575394059888	-320.599186706546	-173.58917620696846	62.72116864034984	-214.10195950133172	-185.3901479255527	33.780355409406	-310.65189370522575	-155.24718380365772	33.28549442195027	-332.1835759373962	-153.02913666338702	48.386542727237725	-273.50263400301657	-118.27578177931598	59.279373645994674	-248.61622400709732	
142	4.733333333333333	83.11664339904922	1694.3586676811217	-201.1015221071126	42.88330143159575	1527.472910745107	-330.1444378580542	63.961982962242686	1367.26452671966	-199.97570610908042	238.93422498541608	1329.6035371241524	-219.95987884772626	257.73061489120136	1072.3071064894698	-268.9467171059275	158.79790739459287	901.6268876919291	-388.332811162014	-88.23986142111023	1333.3242802152424	-200.83158620945193	-128.6837392847825	1094.4754762642815	-243.84953738852815	-48.30007076171568	913.402250286173	-333.8069821431098	148.90521399483632	879.8779460123875	-244.74720464902853	154.59796570300156	486.79349015194913	-167.78001344056577	214.76527926506128	113.00300576435679	-156.66467639608928	-39.571271763573904	872.3463895938554	-233.38036964006614	-44.91380108648768	481.70989601192116	-169.84357785195053	-94.7356589857644	105.13613337887124	-153.5013409791978	217.00284069994498	58.64554363283044	-139.23836867466585	-102.13590568333301	43.195045987786536	-128.979308499801	242.74043124560896	37.346928887128925	-356.1517971173678	299.0641976196462	49.05658615639885	-290.96170403978823	-127.22885634365036	46.282610986595515	-353.0074500717374	-197.1387035714331	33.89937513850415	-286.1578491284473	-85.69068777293529	937.0350149427438	-257.25309342118186	190.56155767633203	944.6807683405455	-271.44480733965844	105.51148479737164	937.6108123996241	-139.41137564702132	11.156524398290415	934.4492211351801	-139.04336947194668	151.773968802449	832.8276212212746	-412.80755312626127	111.24755685336856	852.3734462027659	-441.86977800793153	-48.69549296052575	841.1749591044991	-358.25445339460225	1.7012319926423962	851.7675108176372	-372.52733978477073	-94.63259831492024	477.8946964160668	-155.8114724795778	185.44090165854135	892.961177178192	-380.8016606997918	-145.60925459966427	97.72509078696795	-137.3458870228971	182.79665546462647	98.13899424977073	-169.0575222253232	198.7666182257204	477.9947222414784	-160.64025955446675	58.99641113627447	1203.1966527322222	-299.6399978142656	-70.76091158955464	89.81423808417688	-172.7740863534166	114.30918741370748	476.78221581853734	-182.53635301372594	-132.352363215837	1097.4777211990397	-210.35128978065615	52.32028305769409	987.4066057674216	-321.7079410625692	270.06416597806515	1086.6374034555251	-304.3649197103128	134.56072451001432	921.8024876336963	-382.94493965952626	-78.42154481598622	912.6157930620652	-336.70605015569777	-133.337261226735	1111.7685705347856	-276.7328733096815	-11.410610857181759	473.3605655818568	-207.28849311144694	246.25228400484633	1070.9489851088497	-233.78822927805749	262.95005321195	102.64936292023502	-159.8136763617503	-25.959458001209356	932.0932159387074	-334.50949531958616	43.211773801185934	1449.9385239373653	-315.3229997171785	66.33810267461857	1207.4731932020707	-106.22984724697959	77.23612912685925	1557.688944062667	-335.5793580335753	9.433013286100328	1560.4643264195847	-319.5930807141298	-19.016215758270324	1550.7130105224032	-207.78142674140372	149.56356993289538	1540.5233455022849	-245.08188958590392	66.61464602382911	1424.021297105439	-149.68988760058068	65.83197160043191	1306.3977222881572	-102.75639497336255	74.15303265290008	1058.1362161659426	-127.55634171138271	65.60010368501372	1198.4133447352874	-119.40769425780789	211.27253759645563	1205.1443453740496	-272.1084231253726	289.59464364348656	1177.336218046613	-241.12228721062664	-103.5007940714443	1291.008047221534	-235.33715409224604	-134.0984186462662	1157.5175728928598	-196.6374173880439	98.16260472637447	1012.9124849450573	-283.4123567719768	57.402198620499895	1118.3645457845048	-332.88597591016	0.7264761127351999	1248.9135705005197	-301.58952231599443	-8.517866069238295	1047.7335316615545	-282.4118655389668	132.6121132582146	1288.089590081253	-312.9446263903619	134.81759799040563	664.2415794645997	-209.8436030595143	231.4998967733029	633.7077924703457	-180.20099741784998	0.12140832124644951	589.0804035856378	-207.13381736553717	-143.4969942223428	769.7730834247933	-198.57063440439654	-148.55612543165816	205.1481259109998	-151.4830827875599	-19.585806394762702	329.6224800787564	-178.91137418717446	236.71591537106173	335.6530358838741	-162.00527032806792	147.34143445028892	285.349295182326	-166.65180095522862	263.97464511531336	35.87645435392407	-335.65356921088835	284.6012233200379	43.12357026916534	-317.0815905223824	219.32856577698948	50.16348038610724	-278.63839101108397	251.56803444092867	64.29662548571955	-262.37409675242174	282.051272080274	58.003339110953824	-246.37730648592893	-172.03081995806608	34.46074328127178	-320.2495954456412	-172.9770980751047	62.96112686559678	-213.56885907274835	-185.4529105846177	34.643351257799154	-310.21864482316465	-155.44389235121272	34.19335777715187	-331.9375960808213	-152.82280372105538	48.92999435480126	-273.1806749896658	-117.88626347581858	59.57126095421354	-248.44235563565587	
